<svg xmlns="http://www.w3.org/2000/svg" width="16" height="16" id="note"><g fill="#c2e4f8"><path d="m11.946 6.574-4.484 4.462-.747 2.242 2.242-.747 4.484-4.484-1.495-1.473z"></path><path d="m11.938 6.566.94-.94a.422.422 0 0 1 .599 0l.893.893a.422.422 0 0 1 0 .598l-.94.94"></path></g><path fill="#00d1b6" d="M11.26 9.138H5.696m5.564 2.225H5.696"></path><path fill="none" stroke="#249fe6" d="M11.995 15.5H1.5v-14h7.017l-.005 2.998h3.482m-3.35-3.165 2.993 3.025"></path><g fill="none" stroke="#249fe6"><path d="m11.946 6.574-4.484 4.462-.747 2.242 2.242-.747 4.484-4.484-1.495-1.473z"></path><path d="m11.938 6.566.94-.94a.422.422 0 0 1 .599 0l.893.893a.422.422 0 0 1 0 .598l-.94.94"></path></g><path fill="none" stroke="#249fe6" d="m7.54 10.821 1.61 1.609m2.345 3.04V12m-8.5-4.5h6m-6 2h4m-4 2h3m-3 2H5"></path></svg>